<?xml version="1.0" encoding="UTF-8" standalone="no"?><!DOCTYPE svg PUBLIC "-//W3C//DTD SVG 1.1//EN" "http://www.w3.org/Graphics/SVG/1.1/DTD/svg11.dtd"><svg width="100%" height="100%" viewBox="0 0 40 40" version="1.1" xmlns="http://www.w3.org/2000/svg" xmlns:xlink="http://www.w3.org/1999/xlink" xml:space="preserve" xmlns:serif="http://www.serif.com/" style="fill-rule:evenodd;clip-rule:evenodd;stroke-linecap:round;stroke-linejoin:round;stroke-miterlimit:1.5;"><rect id="Potenz" x="0" y="0" width="40" height="40" style="fill:none;"/><path d="M38.668,5.75c0,-2.622 -2.128,-4.75 -4.75,-4.75l-9.5,0c-2.622,0 -4.75,2.128 -4.75,4.75l0,10.5c0,2.622 2.128,4.75 4.75,4.75l9.5,0c2.622,0 4.75,-2.128 4.75,-4.75l0,-10.5Z" style="fill:#dadada;stroke:#000;stroke-width:1.46px;"/><path d="M18.511,36.737l-2.907,-4.271l-2.979,4.271c-0.43,0.597 -0.795,1.023 -1.093,1.277c-0.299,0.255 -0.678,0.382 -1.138,0.382c-0.509,-0 -0.942,-0.159 -1.299,-0.477c-0.357,-0.318 -0.536,-0.683 -0.536,-1.094c0,-0.42 0.274,-1.022 0.822,-1.805l3.626,-5.196l-3.215,-4.329c-0.557,-0.715 -0.836,-1.336 -0.836,-1.864c-0,-0.411 0.166,-0.768 0.499,-1.072c0.332,-0.303 0.768,-0.455 1.306,-0.455c0.47,0 0.859,0.132 1.167,0.397c0.308,0.264 0.668,0.68 1.079,1.247l2.597,3.552l2.525,-3.552c0.421,-0.587 0.785,-1.008 1.093,-1.262c0.309,-0.255 0.693,-0.382 1.152,-0.382c0.529,0 0.967,0.149 1.314,0.448c0.347,0.298 0.521,0.658 0.521,1.079c0,0.303 -0.071,0.594 -0.213,0.873c-0.142,0.279 -0.359,0.609 -0.653,0.991l-3.214,4.329l3.625,5.196c0.568,0.812 0.851,1.424 0.851,1.835c0,0.42 -0.176,0.782 -0.528,1.086c-0.352,0.303 -0.788,0.455 -1.306,0.455c-0.46,-0 -0.849,-0.132 -1.167,-0.397c-0.318,-0.264 -0.683,-0.684 -1.093,-1.262Z" style="fill-rule:nonzero;"/></svg>