<?xml version="1.0" encoding="UTF-8" standalone="no"?><!DOCTYPE svg PUBLIC "-//W3C//DTD SVG 1.1//EN" "http://www.w3.org/Graphics/SVG/1.1/DTD/svg11.dtd"><svg width="100%" height="100%" viewBox="0 0 40 40" version="1.1" xmlns="http://www.w3.org/2000/svg" xmlns:xlink="http://www.w3.org/1999/xlink" xml:space="preserve" xmlns:serif="http://www.serif.com/" style="fill-rule:evenodd;clip-rule:evenodd;stroke-linejoin:round;stroke-miterlimit:2;"><rect id="nte-Wurzel" x="0" y="0" width="40" height="40" style="fill:none;"/><text x="23px" y="31.273px" style="font-family:'ArialRoundedMTBold', 'Arial Rounded MT Bold', sans-serif;font-size:20.833px;">x</text><text x="5px" y="15.134px" style="font-family:'ArialRoundedMTBold', 'Arial Rounded MT Bold', sans-serif;font-size:16.667px;">n</text><path d="M14.815,34.106c1.78,-0 2.487,-0.504 3.023,-2.08l8.403,-24.987l5.809,-0c0.964,-0 1.693,-0.439 1.693,-1.186c0,-0.731 -0.729,-1.17 -1.693,-1.17l-5.788,0c-1.822,0 -2.744,0.471 -3.151,1.706l-8.038,24.613l-0.365,0l-4.373,-10.576c-0.343,-0.812 -0.75,-1.072 -1.629,-1.072c-1.05,-0 -1.607,0.471 -1.607,1.121c-0,0.26 0.064,0.487 0.15,0.682l4.737,10.999c0.643,1.511 1.2,1.95 2.829,1.95Z" style="fill-rule:nonzero;"/></svg>