<?xml version="1.0" encoding="UTF-8" standalone="no"?>
<!DOCTYPE svg PUBLIC "-//W3C//DTD SVG 1.1//EN" "http://www.w3.org/Graphics/SVG/1.1/DTD/svg11.dtd">
<svg width="100%" height="100%" viewBox="0 0 733 250" version="1.1" xmlns="http://www.w3.org/2000/svg" xmlns:xlink="http://www.w3.org/1999/xlink" xml:space="preserve" xmlns:serif="http://www.serif.com/" style="fill-rule:evenodd;clip-rule:evenodd;stroke-linejoin:round;stroke-miterlimit:2;">
    <g transform="matrix(1,0,0,1,-42.2766,-149.954)">
        <g transform="matrix(1,0,0,1,5.39579,5.45431)">
            <path d="M46,192C46.446,180.294 46.151,179.487 50,179C54.57,179.881 54.137,179.386 54,193C54.994,230.278 56.677,271.386 61.478,297.382C64.688,314.762 69.583,323.415 66,326C54.939,326.478 51.455,295.711 49,265L46,192Z"/>
        </g>
        <g transform="matrix(1,0,0,1,5.39579,5.45431)">
            <path d="M42,147C60.321,144.03 64.612,143.32 89,147C106.687,153.219 119.953,164.168 124.009,183.362C123.882,205.346 114.147,221.454 101.805,240.174C119.253,248.894 128.551,249.815 144.443,263.885C153.994,274.791 160.452,288.108 160.924,306.09C160.897,339.284 135.213,349.986 102.141,354.21C87.746,354.317 78.904,353.35 71.054,351.321C55.517,347.304 49.703,340.043 53.259,335.628C53.259,335.628 62.045,334.943 63.875,336.234C67.791,338.999 90.152,339.995 99.006,338.424C126.476,336.084 145.725,329.711 147.965,309.785L148.97,303.472C147.939,283.422 137.877,268.215 118.457,258.025C103.62,251.32 95.044,250.25 93.465,240.688C92.134,232.629 108.614,218.186 112.504,194.484C114.725,178.768 106.389,166.468 86,158C71.353,153.982 52.8,152.607 44,156C36.093,156.859 33.865,150.058 42,147Z"/>
        </g>
        <path d="M237,345C237.131,353.39 228.492,356.467 214,356C193.53,357.084 184.576,348.204 182.587,337.157C181.611,331.735 181.942,327.756 182.486,319.859C182.073,310.928 185.606,303.302 190,296C195.364,290.229 202.196,285.961 213.081,285.842C228.327,286.917 235.278,291.603 236,299C235.963,304.369 233.638,309.37 229,314C223.36,317.76 217.396,320.399 211.074,321.797C200.903,326.972 196.733,324.613 196,320C196.065,316.557 198.726,315.605 203.928,316.064C206.04,316.25 213.789,308.814 217,307C221.317,304.281 224.797,300.892 225.118,299.344C224.21,297.172 221.417,296.361 218,296C209.615,294.036 203.984,295.879 200,300C195.351,302.999 193.805,309.126 193,316C192.915,325.036 193.322,333.3 196,338C199.352,340.733 203.733,342.371 210,342C213.215,342.301 219.041,342.074 224,340C226.059,338.843 228.441,338.125 232,339C234.804,340.189 236.377,342.256 237,345Z"/>
        <path d="M272.104,280.882C275.001,281.049 276.647,282.442 276.28,285.809C283.265,277.89 290.311,273.661 297.443,274.778C316.075,275.193 324.096,297.529 324.741,335.107C324.379,349.952 324.337,358.657 315.716,359.317C310.481,359.136 308.794,355.785 307.973,351.661C308.948,344.816 309.48,337.584 309.768,330.14C309.397,306.719 307.281,286.886 296.019,285.842C287.855,285.321 282.053,295.566 276.705,307.877C276.412,317.286 276.382,326.766 277.12,336.453C277.773,342.356 278.232,348.569 277.876,356.09C276.568,361.316 274.364,363.436 271.463,363.138C265.694,364.218 263.193,355.798 261.021,346.418C260.583,339.548 260.454,332.315 260.865,324.449C261.99,315.876 264.397,308.454 267.815,301.941L267.964,283.892C269.203,281.534 270.626,280.945 272.104,280.882Z"/>
        <path d="M360.766,319.954C360.429,318.315 360.943,316.775 363.996,315.533C366.587,317.032 369.347,317.78 372.373,317.356C389.122,315.905 404.832,313.356 405.227,294.618C404.681,287.119 400.602,283.805 393.46,284.123C375.155,285.788 360.211,294.029 358.376,327.915C359.691,337.775 358.399,348.454 388.107,349.389C393.995,349.25 400.615,348.203 410.046,347.272C421.282,346.163 430.107,337.559 431.842,342.849C434.14,349.853 407.717,365.057 386.735,363.888C358.44,362.651 346.905,350.045 346.877,330.693C349.163,288.752 369.16,276.797 394.196,273.375C409.1,273.238 417.021,281.017 417.557,297.164C415.419,319.135 401.379,327.134 381.527,328.31C369.255,328.282 359.384,327.017 360.766,319.954Z"/>
        <g transform="matrix(1,0,0,1,15.7668,13.0603)">
            <path d="M550.699,230.121C551.791,229.552 552.821,228.427 553.729,226.204C561.4,231.102 565.859,229.156 569.063,223.948C570.267,215.59 562.774,213.889 554.44,212.833C547.718,212.249 543.795,214.629 542.483,221.123C544.059,227.845 546.744,231.016 550.699,230.121Z"/>
        </g>
        <path d="M566.218,344.251C566.095,326.594 566.893,309.237 567.448,291.772C570.192,288.289 573.148,287.379 575.998,291.673C575.998,291.673 575.454,333.064 576.773,340.342C578.182,348.117 572.654,350.378 571.98,349.689C567.462,349.11 566.421,347.125 566.218,344.251Z"/>
        <path d="M648.907,269.533C647.857,266.284 644.909,265.058 640.842,265.026C622.259,264.929 607.354,293.869 603.488,321.876C604.515,334.232 604.813,346.956 629.152,347.499C645.855,347.325 657.988,345.277 659.35,338.815C658.966,335.593 648.333,335.29 636.294,335.388C621.38,336.308 615.867,332.066 615.902,324.779C615.897,319.143 615.968,316.141 616.064,314.037C620.387,290.412 628.382,273.209 640.267,273.373C645.53,274.344 648.776,272.919 648.907,269.533Z"/>
        <path d="M491.149,292.564C491.108,266.295 492.757,232.865 496.741,211.897C499.977,194.864 500.783,184.955 507.505,183.486C511.909,185.999 513.922,190.284 514.851,195.056C518.726,214.954 525.79,262.984 510.932,319.3C512.811,323.314 514.957,327.571 517.93,330.621C519.998,332.742 522.822,333.908 524.748,335.555C525.754,336.416 524.687,337.397 525.775,338.105C520.02,343.627 511.675,341.641 504.301,334.272C493.685,347.732 479.86,354.808 462.787,355.424C450.681,354.937 448.003,350.205 446.446,340.549C449.459,312.05 464.294,290.952 479.65,290.366C483.822,290.506 487.604,291.328 491.149,292.564L486.606,301.365C483.72,300.635 480.92,300.606 478.18,301.081C462.05,317.044 458.817,336.609 461.452,341.454C477.725,342.596 489.051,335.485 497.113,322.93C494.357,318.589 492.807,312.902 492.112,306.263C490.637,303.813 488.643,302.54 486.606,301.365L504.7,296.928C507.863,284.161 510.213,265.17 511.763,240.051C511.313,225.211 509.949,212.711 507.85,202.091C507.305,207.875 506.839,214.517 506.406,221.509C503.505,240.485 503.071,298.041 504.7,296.928L486.606,301.365L491.149,292.564Z"/>
        <path d="M723.484,256.509C722.587,227.038 720.731,195.32 718.662,163.529C713.233,155.43 714.177,150.423 720.687,150.024C729.49,148.434 734.59,173.679 738.884,254.841C753.779,252.922 768.613,248.373 774.755,256.38C775.574,267.036 763.335,273.541 739.921,276.493C738.7,313.245 744.676,346.971 735.887,349.806C717.992,354.003 696.891,316.422 675.162,270.642C673.365,258.809 685.996,257.666 711.924,257.521L709.9,277.337C705.113,277.722 698.738,277.433 692.295,277.115C701.885,304.724 713.608,319.966 726.046,331.064C724.347,315.215 723.963,296.881 724.075,277.61C718.916,277.758 713.78,277.892 709.9,277.337L711.924,257.521C716.443,256.836 720.562,256.36 723.484,256.509Z"/>
        <g transform="matrix(1,0,0,1,20.7056,-28.5462)">
            <path d="M44.189,428.024C36.545,425.851 29.611,422.399 27.074,418.159C22.57,410.63 27.29,400.654 33.715,399.88C42.594,398.81 43.168,413.952 46,413.235C173.226,411.351 283.773,416.348 402.428,415.977C494.49,415.69 582.168,412.896 741.136,405.999C741.249,405.995 752.983,415.791 662.695,422.937L662.714,422.927"/>
        </g>
    </g>
</svg>
