<?xml version="1.0" encoding="UTF-8" standalone="no"?><!DOCTYPE svg PUBLIC "-//W3C//DTD SVG 1.1//EN" "http://www.w3.org/Graphics/SVG/1.1/DTD/svg11.dtd"><svg width="100%" height="100%" viewBox="0 0 40 40" version="1.1" xmlns="http://www.w3.org/2000/svg" xmlns:xlink="http://www.w3.org/1999/xlink" xml:space="preserve" xmlns:serif="http://www.serif.com/" style="fill-rule:evenodd;clip-rule:evenodd;stroke-linecap:round;stroke-linejoin:round;stroke-miterlimit:1.5;"><rect id="Bruch" x="0" y="0" width="40" height="40" style="fill:none;"/><g id="Bruch1" serif:id="Bruch"><path d="M30.5,26.75c-0,-2.07 -1.68,-3.75 -3.75,-3.75l-13.5,0c-2.07,0 -3.75,1.68 -3.75,3.75l0,7.5c0,2.07 1.68,3.75 3.75,3.75l13.5,0c2.07,0 3.75,-1.68 3.75,-3.75l-0,-7.5Z" style="fill:#dadada;stroke:#000;stroke-width:1.25px;"/><path d="M30.5,5.75c-0,-2.07 -1.68,-3.75 -3.75,-3.75l-13.5,0c-2.07,0 -3.75,1.68 -3.75,3.75l0,7.5c0,2.07 1.68,3.75 3.75,3.75l13.5,0c2.07,0 3.75,-1.68 3.75,-3.75l-0,-7.5Z" style="fill:#dadada;stroke:#000;stroke-width:1.25px;"/><path d="M32.5,19.813c0,-0.278 -0.226,-0.504 -0.504,-0.504l-23.992,-0c-0.278,-0 -0.504,0.226 -0.504,0.504l-0,0.374c-0,0.278 0.226,0.504 0.504,0.504l23.992,0c0.278,0 0.504,-0.226 0.504,-0.504l0,-0.374Z"/></g></svg>