<?xml version="1.0" encoding="UTF-8" standalone="no"?>
<!DOCTYPE svg PUBLIC "-//W3C//DTD SVG 1.1//EN" "http://www.w3.org/Graphics/SVG/1.1/DTD/svg11.dtd">
<svg width="100%" height="100%" viewBox="0 0 200 200" version="1.1" xmlns="http://www.w3.org/2000/svg" xmlns:xlink="http://www.w3.org/1999/xlink" xml:space="preserve" xmlns:serif="http://www.serif.com/" style="fill-rule:evenodd;clip-rule:evenodd;stroke-linecap:round;stroke-linejoin:round;stroke-miterlimit:1.5;">
    <g transform="matrix(1,0,0,1,-698.333,-5.32907e-15)">
        <g id="_3:-Achsen-mit-Linien" serif:id="3: Achsen mit Linien" transform="matrix(1,0,0,1,698.333,5.32907e-15)">
            <rect x="0" y="0" width="200" height="200" style="fill:none;"/>
            <clipPath id="_clip1">
                <rect x="0" y="0" width="200" height="200"/>
            </clipPath>
            <g clip-path="url(#_clip1)">
                <g transform="matrix(1.20245,0,0,1.90291,-29.5971,-72.2136)">
                    <path d="M189,64.75C189,50.538 170.741,39 148.25,39L66.75,39C44.259,39 26,50.538 26,64.75L26,116.25C26,130.462 44.259,142 66.75,142L148.25,142C170.741,142 189,130.462 189,116.25L189,64.75Z" style="fill:rgb(220,220,220);stroke:rgb(0,168,255);stroke-width:3.14px;"/>
                </g>
                <g transform="matrix(1.20245,0,0,1.90291,-29.5971,-72.2136)">
                    <path d="M189,64.75C189,50.538 170.741,39 148.25,39L66.75,39C44.259,39 26,50.538 26,64.75L26,116.25C26,130.462 44.259,142 66.75,142L148.25,142C170.741,142 189,130.462 189,116.25L189,64.75Z" style="fill:rgb(220,220,220);stroke:rgb(0,168,255);stroke-width:3.14px;"/>
                </g>
                <g transform="matrix(13.35,0,0,0.571429,-7435.99,34.7143)">
                    <rect x="556" y="88" width="20" height="7" style="fill:rgb(103,143,180);stroke:rgb(0,18,27);stroke-opacity:0;stroke-width:0.26px;"/>
                </g>
                <g transform="matrix(13.35,0,0,0.571429,-7435.99,21.7143)">
                    <rect x="556" y="88" width="20" height="7" style="fill:rgb(103,143,180);stroke:rgb(0,18,27);stroke-opacity:0;stroke-width:0.26px;"/>
                </g>
                <g transform="matrix(13.35,0,0,0.571429,-7435.99,8.71429)">
                    <rect x="556" y="88" width="20" height="7" style="fill:rgb(103,143,180);stroke:rgb(0,18,27);stroke-opacity:0;stroke-width:0.26px;"/>
                </g>
                <g transform="matrix(13.35,0,0,0.571429,-7435.99,-4.28571)">
                    <rect x="556" y="88" width="20" height="7" style="fill:rgb(103,143,180);stroke:rgb(0,18,27);stroke-opacity:0;stroke-width:0.26px;"/>
                </g>
                <g transform="matrix(9.60115,0,0,0.571429,-5334.63,-17.2857)">
                    <rect x="556" y="88" width="20" height="7" style="fill:rgb(103,143,180);stroke:rgb(0,18,27);stroke-opacity:0;stroke-width:0.37px;"/>
                </g>
                <g transform="matrix(8.7256,0,0,0.571429,-4838.54,-33.2857)">
                    <rect x="556" y="88" width="20" height="7" style="fill:rgb(103,143,180);stroke:rgb(0,18,27);stroke-opacity:0;stroke-width:0.4px;"/>
                </g>
                <g transform="matrix(9.37616,0,0,0.571429,-5207.26,118.714)">
                    <rect x="556" y="88" width="20" height="7" style="fill:rgb(103,143,180);stroke:rgb(0,18,27);stroke-opacity:0;stroke-width:0.38px;"/>
                </g>
                <g transform="matrix(8.45278,0,0,0.571429,-4684.13,131.714)">
                    <rect x="556" y="88" width="20" height="7" style="fill:rgb(103,143,180);stroke:rgb(0,18,27);stroke-opacity:0;stroke-width:0.42px;"/>
                </g>
                <g transform="matrix(9.74069,0,0,0.571429,-5414.21,105.714)">
                    <rect x="556" y="88" width="20" height="7" style="fill:rgb(103,143,180);stroke:rgb(0,18,27);stroke-opacity:0;stroke-width:0.36px;"/>
                </g>
                <g transform="matrix(13.35,0,0,0.571429,-7435.99,92.7143)">
                    <rect x="556" y="88" width="20" height="7" style="fill:rgb(103,143,180);stroke:rgb(0,18,27);stroke-opacity:0;stroke-width:0.26px;"/>
                </g>
                <g transform="matrix(13.35,0,0,0.571429,-7435.99,79.7143)">
                    <rect x="556" y="88" width="20" height="7" style="fill:rgb(103,143,180);stroke:rgb(0,18,27);stroke-opacity:0;stroke-width:0.26px;"/>
                </g>
                <g transform="matrix(13.35,0,0,0.571429,-7435.99,66.7143)">
                    <rect x="556" y="88" width="20" height="7" style="fill:rgb(103,143,180);stroke:rgb(0,18,27);stroke-opacity:0;stroke-width:0.26px;"/>
                </g>
                <g transform="matrix(6.64371e-16,-10.85,0.571429,3.49899e-17,31.381,6235.6)">
                    <rect x="556" y="88" width="20" height="7" style="fill:rgb(103,143,180);stroke:rgb(0,18,27);stroke-opacity:0;stroke-width:0.33px;"/>
                </g>
                <g transform="matrix(6.64371e-16,-10.85,0.571429,3.49899e-17,18.381,6235.6)">
                    <rect x="556" y="88" width="20" height="7" style="fill:rgb(103,143,180);stroke:rgb(0,18,27);stroke-opacity:0;stroke-width:0.33px;"/>
                </g>
                <g transform="matrix(6.64371e-16,-10.85,0.571429,3.49899e-17,5.38095,6235.6)">
                    <rect x="556" y="88" width="20" height="7" style="fill:rgb(103,143,180);stroke:rgb(0,18,27);stroke-opacity:0;stroke-width:0.33px;"/>
                </g>
                <g transform="matrix(6.49063e-16,-10.6,0.571429,3.49899e-17,-7.61905,6091.6)">
                    <rect x="556" y="88" width="20" height="7" style="fill:rgb(103,143,180);stroke:rgb(0,18,27);stroke-opacity:0;stroke-width:0.33px;"/>
                </g>
                <g transform="matrix(5.78646e-16,-9.45,0.571429,3.49899e-17,-20.619,5449.2)">
                    <rect x="556" y="88" width="20" height="7" style="fill:rgb(103,143,180);stroke:rgb(0,18,27);stroke-opacity:0;stroke-width:0.37px;"/>
                </g>
                <g transform="matrix(5.29955e-16,-8.65483,0.571429,3.49899e-17,-33.619,4999.08)">
                    <rect x="556" y="88" width="20" height="7" style="fill:rgb(103,143,180);stroke:rgb(0,18,27);stroke-opacity:0;stroke-width:0.41px;"/>
                </g>
                <g transform="matrix(5.81603e-16,-9.4983,0.571429,3.49899e-17,115.381,5476.02)">
                    <rect x="556" y="88" width="20" height="7" style="fill:rgb(103,143,180);stroke:rgb(0,18,27);stroke-opacity:0;stroke-width:0.37px;"/>
                </g>
                <g transform="matrix(5.19219e-16,-8.47949,0.571429,3.49899e-17,130.381,4899.18)">
                    <rect x="556" y="88" width="20" height="7" style="fill:rgb(103,143,180);stroke:rgb(0,18,27);stroke-opacity:0;stroke-width:0.42px;"/>
                </g>
                <g transform="matrix(6.64371e-16,-10.85,0.571429,3.49899e-17,102.381,6235.6)">
                    <rect x="556" y="88" width="20" height="7" style="fill:rgb(103,143,180);stroke:rgb(0,18,27);stroke-opacity:0;stroke-width:0.33px;"/>
                </g>
                <g transform="matrix(6.64371e-16,-10.85,0.571429,3.49899e-17,89.381,6235.6)">
                    <rect x="556" y="88" width="20" height="7" style="fill:rgb(103,143,180);stroke:rgb(0,18,27);stroke-opacity:0;stroke-width:0.33px;"/>
                </g>
                <g transform="matrix(6.64371e-16,-10.85,0.571429,3.49899e-17,76.381,6235.6)">
                    <rect x="556" y="88" width="20" height="7" style="fill:rgb(103,143,180);stroke:rgb(0,18,27);stroke-opacity:0;stroke-width:0.33px;"/>
                </g>
                <g transform="matrix(6.64371e-16,-10.85,0.571429,3.49899e-17,63.381,6235.6)">
                    <rect x="556" y="88" width="20" height="7" style="fill:rgb(103,143,180);stroke:rgb(0,18,27);stroke-opacity:0;stroke-width:0.33px;"/>
                </g>
                <g transform="matrix(0.978892,0,0,1,-225.792,-1)">
                    <path d="M237.5,100.5L414.008,100.5L412.123,94L427,104L412.123,114L414.008,107.5L237.5,107.5L237.5,100.5Z" style="stroke:black;stroke-width:2.53px;"/>
                </g>
                <g transform="matrix(5.96167e-17,-0.973615,1,6.12323e-17,-4.55556,423.984)">
                    <path d="M237.5,100.5L414.008,100.5L412.123,94L427,104L412.123,114L414.008,107.5L237.5,107.5L237.5,100.5Z" style="stroke:black;stroke-width:2.53px;"/>
                </g>
                <g transform="matrix(1.20245,0,0,1.90291,-29.6412,-72.2136)">
                    <path d="M189,64.75C189,50.538 170.741,39 148.25,39L66.75,39C44.259,39 26,50.538 26,64.75L26,116.25C26,130.462 44.259,142 66.75,142L148.25,142C170.741,142 189,130.462 189,116.25L189,64.75Z" style="fill:rgb(220,220,220);fill-opacity:0;stroke:rgb(145,145,145);stroke-width:3.14px;"/>
                </g>
            </g>
        </g>
    </g>
</svg>
